<svg xmlns="http://www.w3.org/2000/svg" viewBox="0 0 64 64" fill="none">
  <defs>
    <linearGradient id="needle" x1="14" y1="49" x2="51" y2="14" gradientUnits="userSpaceOnUse">
      <stop stop-color="#99A8BC" />
      <stop offset="0.5" stop-color="#F6FAFF" />
      <stop offset="1" stop-color="#B5C1D1" />
    </linearGradient>
  </defs>

  <rect x="4" y="4" width="56" height="56" rx="16" fill="#173F97" />
  <rect x="4" y="4" width="56" height="56" rx="16" stroke="#2D56B8" stroke-width="1.5" />

  <path d="M15 48L29.5 34" stroke="url(#needle)" stroke-linecap="round" stroke-width="5" />
  <ellipse
    cx="15.5"
    cy="48.5"
    rx="3.6"
    ry="2.3"
    transform="rotate(-44 15.5 48.5)"
    stroke="#D4DEEA"
    stroke-width="2"
  />

  <g transform="rotate(-11 32 32)">
    <rect x="18" y="18" width="28" height="28" rx="8.5" fill="#F4DFC1" />
    <rect x="18" y="18" width="28" height="28" rx="8.5" stroke="#A97747" stroke-width="2.5" />
    <path d="M32 25V39" stroke="#D2B086" stroke-linecap="round" stroke-width="1.8" />
    <path d="M25 32H39" stroke="#D2B086" stroke-linecap="round" stroke-width="1.8" />
    <circle cx="32" cy="32" r="2.9" fill="#D8B58E" stroke="#A97747" stroke-width="1.4" />
    <circle cx="23.5" cy="23.5" r="2" fill="#173F97" />
    <circle cx="40.5" cy="23.5" r="2" fill="#173F97" />
    <circle cx="23.5" cy="40.5" r="2" fill="#173F97" />
    <circle cx="40.5" cy="40.5" r="2" fill="#173F97" />
  </g>

  <path d="M28 35L47.5 16" stroke="url(#needle)" stroke-linecap="round" stroke-width="5" />
  <path d="M45.6 17.7L51 13L48.5 20.7L45.6 17.7Z" fill="#E7EEF8" stroke="#AAB8CA" stroke-width="1" />
</svg>
